<mxfile host="app.diagrams.net" modified="2022-05-09T21:26:37.738Z" agent="5.0 (Windows NT 10.0; Win64; x64) AppleWebKit/537.36 (KHTML, like Gecko) Chrome/101.0.4951.54 Safari/537.36" etag="ZnEr7oMxUkS6t4e8WNdz" version="18.0.1" type="github">
  <diagram id="ny3oVwAZ4V_wvto3aZBs" name="Page-1">
    <mxGraphModel dx="782" dy="1109" grid="1" gridSize="10" guides="1" tooltips="1" connect="1" arrows="1" fold="1" page="1" pageScale="1" pageWidth="827" pageHeight="1169" math="0" shadow="0">
      <root>
        <mxCell id="0" />
        <mxCell id="1" parent="0" />
        <mxCell id="yP4ieVi-nLM1ygez4TLR-7" value="" style="edgeStyle=orthogonalEdgeStyle;rounded=0;orthogonalLoop=1;jettySize=auto;html=1;" parent="1" source="yP4ieVi-nLM1ygez4TLR-1" target="yP4ieVi-nLM1ygez4TLR-2" edge="1">
          <mxGeometry relative="1" as="geometry" />
        </mxCell>
        <mxCell id="yP4ieVi-nLM1ygez4TLR-1" value="transform.js" style="rounded=1;whiteSpace=wrap;html=1;" parent="1" vertex="1">
          <mxGeometry x="354" y="340" width="120" height="60" as="geometry" />
        </mxCell>
        <mxCell id="yP4ieVi-nLM1ygez4TLR-8" value="" style="edgeStyle=orthogonalEdgeStyle;rounded=0;orthogonalLoop=1;jettySize=auto;html=1;" parent="1" source="yP4ieVi-nLM1ygez4TLR-2" target="yP4ieVi-nLM1ygez4TLR-3" edge="1">
          <mxGeometry relative="1" as="geometry" />
        </mxCell>
        <mxCell id="yP4ieVi-nLM1ygez4TLR-2" value="transformController" style="rounded=1;whiteSpace=wrap;html=1;" parent="1" vertex="1">
          <mxGeometry x="354" y="430" width="120" height="60" as="geometry" />
        </mxCell>
        <mxCell id="yP4ieVi-nLM1ygez4TLR-9" value="" style="edgeStyle=orthogonalEdgeStyle;rounded=0;orthogonalLoop=1;jettySize=auto;html=1;" parent="1" source="yP4ieVi-nLM1ygez4TLR-3" target="yP4ieVi-nLM1ygez4TLR-4" edge="1">
          <mxGeometry relative="1" as="geometry" />
        </mxCell>
        <mxCell id="yP4ieVi-nLM1ygez4TLR-3" value="_writeFile" style="rounded=1;whiteSpace=wrap;html=1;" parent="1" vertex="1">
          <mxGeometry x="354" y="520" width="120" height="60" as="geometry" />
        </mxCell>
        <mxCell id="yP4ieVi-nLM1ygez4TLR-10" value="" style="edgeStyle=orthogonalEdgeStyle;rounded=0;orthogonalLoop=1;jettySize=auto;html=1;" parent="1" source="yP4ieVi-nLM1ygez4TLR-4" target="yP4ieVi-nLM1ygez4TLR-5" edge="1">
          <mxGeometry relative="1" as="geometry" />
        </mxCell>
        <mxCell id="yP4ieVi-nLM1ygez4TLR-4" value="_transformFile" style="rounded=1;whiteSpace=wrap;html=1;" parent="1" vertex="1">
          <mxGeometry x="354" y="610" width="120" height="60" as="geometry" />
        </mxCell>
        <mxCell id="EooDAORPQ9iUzGNVsF7X-6" style="edgeStyle=orthogonalEdgeStyle;rounded=0;orthogonalLoop=1;jettySize=auto;html=1;entryX=0.5;entryY=0;entryDx=0;entryDy=0;dashed=1;" edge="1" parent="1" source="yP4ieVi-nLM1ygez4TLR-5" target="EooDAORPQ9iUzGNVsF7X-5">
          <mxGeometry relative="1" as="geometry" />
        </mxCell>
        <mxCell id="yP4ieVi-nLM1ygez4TLR-5" value="putFile (outputFile)" style="rounded=1;whiteSpace=wrap;html=1;" parent="1" vertex="1">
          <mxGeometry x="354" y="700" width="120" height="60" as="geometry" />
        </mxCell>
        <mxCell id="yP4ieVi-nLM1ygez4TLR-13" value="" style="edgeStyle=orthogonalEdgeStyle;rounded=0;orthogonalLoop=1;jettySize=auto;html=1;" parent="1" target="yP4ieVi-nLM1ygez4TLR-12" edge="1">
          <mxGeometry relative="1" as="geometry">
            <mxPoint x="414" y="620" as="sourcePoint" />
          </mxGeometry>
        </mxCell>
        <mxCell id="yP4ieVi-nLM1ygez4TLR-15" style="edgeStyle=orthogonalEdgeStyle;rounded=0;orthogonalLoop=1;jettySize=auto;html=1;entryX=0.5;entryY=0;entryDx=0;entryDy=0;exitX=0;exitY=0.5;exitDx=0;exitDy=0;" parent="1" source="yP4ieVi-nLM1ygez4TLR-5" target="yP4ieVi-nLM1ygez4TLR-34" edge="1">
          <mxGeometry relative="1" as="geometry">
            <mxPoint x="414" y="710" as="sourcePoint" />
            <mxPoint x="414" y="740" as="targetPoint" />
            <Array as="points">
              <mxPoint x="213" y="730" />
            </Array>
          </mxGeometry>
        </mxCell>
        <mxCell id="yP4ieVi-nLM1ygez4TLR-32" value="" style="edgeStyle=orthogonalEdgeStyle;rounded=0;orthogonalLoop=1;jettySize=auto;html=1;" parent="1" source="yP4ieVi-nLM1ygez4TLR-34" target="yP4ieVi-nLM1ygez4TLR-36" edge="1">
          <mxGeometry relative="1" as="geometry" />
        </mxCell>
        <mxCell id="yP4ieVi-nLM1ygez4TLR-34" value="daos.mediaFile.put" style="rounded=1;whiteSpace=wrap;html=1;fillColor=#dae8fc;strokeColor=#6c8ebf;" parent="1" vertex="1">
          <mxGeometry x="154.5" y="800" width="117" height="60" as="geometry" />
        </mxCell>
        <mxCell id="EooDAORPQ9iUzGNVsF7X-7" style="edgeStyle=orthogonalEdgeStyle;rounded=0;orthogonalLoop=1;jettySize=auto;html=1;" edge="1" parent="1" source="yP4ieVi-nLM1ygez4TLR-36">
          <mxGeometry relative="1" as="geometry">
            <mxPoint x="370" y="959" as="targetPoint" />
          </mxGeometry>
        </mxCell>
        <mxCell id="yP4ieVi-nLM1ygez4TLR-36" value="Current:&lt;br&gt;with S3 Secret Info&lt;br&gt;Directly Connect" style="rounded=1;whiteSpace=wrap;html=1;" parent="1" vertex="1">
          <mxGeometry x="153" y="929" width="120" height="60" as="geometry" />
        </mxCell>
        <mxCell id="yP4ieVi-nLM1ygez4TLR-51" style="edgeStyle=orthogonalEdgeStyle;rounded=0;orthogonalLoop=1;jettySize=auto;html=1;dashed=1;exitX=0.25;exitY=1;exitDx=0;exitDy=0;entryX=0.25;entryY=0;entryDx=0;entryDy=0;" parent="1" source="EooDAORPQ9iUzGNVsF7X-5" edge="1" target="yP4ieVi-nLM1ygez4TLR-41">
          <mxGeometry relative="1" as="geometry">
            <mxPoint x="620" y="1000" as="targetPoint" />
            <Array as="points" />
            <mxPoint x="609.5" y="914" as="sourcePoint" />
          </mxGeometry>
        </mxCell>
        <mxCell id="yP4ieVi-nLM1ygez4TLR-53" style="edgeStyle=orthogonalEdgeStyle;rounded=0;orthogonalLoop=1;jettySize=auto;html=1;dashed=1;exitX=0;exitY=0.5;exitDx=0;exitDy=0;" parent="1" source="EooDAORPQ9iUzGNVsF7X-5" target="yP4ieVi-nLM1ygez4TLR-39" edge="1">
          <mxGeometry relative="1" as="geometry">
            <mxPoint x="589.5" y="884" as="sourcePoint" />
          </mxGeometry>
        </mxCell>
        <mxCell id="yP4ieVi-nLM1ygez4TLR-39" value="" style="sketch=0;points=[[0,0,0],[0.25,0,0],[0.5,0,0],[0.75,0,0],[1,0,0],[0,1,0],[0.25,1,0],[0.5,1,0],[0.75,1,0],[1,1,0],[0,0.25,0],[0,0.5,0],[0,0.75,0],[1,0.25,0],[1,0.5,0],[1,0.75,0]];outlineConnect=0;fontColor=#232F3E;gradientColor=#60A337;gradientDirection=north;fillColor=#277116;strokeColor=#ffffff;dashed=0;verticalLabelPosition=bottom;verticalAlign=top;align=center;html=1;fontSize=12;fontStyle=0;aspect=fixed;shape=mxgraph.aws4.resourceIcon;resIcon=mxgraph.aws4.s3;" parent="1" vertex="1">
          <mxGeometry x="372" y="911" width="78" height="78" as="geometry" />
        </mxCell>
        <mxCell id="yP4ieVi-nLM1ygez4TLR-48" style="edgeStyle=orthogonalEdgeStyle;rounded=0;orthogonalLoop=1;jettySize=auto;html=1;dashed=1;" parent="1" source="yP4ieVi-nLM1ygez4TLR-41" target="EooDAORPQ9iUzGNVsF7X-5" edge="1">
          <mxGeometry relative="1" as="geometry">
            <Array as="points" />
            <mxPoint x="629.5" y="914" as="targetPoint" />
          </mxGeometry>
        </mxCell>
        <mxCell id="yP4ieVi-nLM1ygez4TLR-41" value="service-media" style="rounded=1;whiteSpace=wrap;html=1;" parent="1" vertex="1">
          <mxGeometry x="589.5" y="929" width="120" height="60" as="geometry" />
        </mxCell>
        <mxCell id="yP4ieVi-nLM1ygez4TLR-42" value="File to be changed&lt;br&gt;" style="text;html=1;align=center;verticalAlign=middle;resizable=0;points=[];autosize=1;strokeColor=none;fillColor=none;" parent="1" vertex="1">
          <mxGeometry x="359" y="787" width="110" height="20" as="geometry" />
        </mxCell>
        <mxCell id="yP4ieVi-nLM1ygez4TLR-43" value="" style="outlineConnect=0;dashed=0;verticalLabelPosition=bottom;verticalAlign=top;align=center;html=1;shape=mxgraph.aws3.iam;fillColor=#759C3E;gradientColor=none;" parent="1" vertex="1">
          <mxGeometry x="93" y="922" width="42" height="81" as="geometry" />
        </mxCell>
        <mxCell id="yP4ieVi-nLM1ygez4TLR-44" value="" style="outlineConnect=0;dashed=0;verticalLabelPosition=bottom;verticalAlign=top;align=center;html=1;shape=mxgraph.aws3.iam;fillColor=#759C3E;gradientColor=none;" parent="1" vertex="1">
          <mxGeometry x="720" y="908" width="42" height="81" as="geometry" />
        </mxCell>
        <mxCell id="yP4ieVi-nLM1ygez4TLR-45" value="" style="shape=image;html=1;verticalAlign=top;verticalLabelPosition=bottom;labelBackgroundColor=#ffffff;imageAspect=0;aspect=fixed;image=https://cdn3.iconfinder.com/data/icons/flat-actions-icons-9/792/Close_Icon-128.png" parent="1" vertex="1">
          <mxGeometry x="70" y="915" width="88" height="88" as="geometry" />
        </mxCell>
        <mxCell id="yP4ieVi-nLM1ygez4TLR-46" value="" style="shape=image;html=1;verticalAlign=top;verticalLabelPosition=bottom;labelBackgroundColor=#ffffff;imageAspect=0;aspect=fixed;image=https://cdn3.iconfinder.com/data/icons/flat-actions-icons-9/792/Close_Icon-128.png" parent="1" vertex="1">
          <mxGeometry x="169" y="686" width="88" height="88" as="geometry" />
        </mxCell>
        <mxCell id="yP4ieVi-nLM1ygez4TLR-49" value="2. GET upload URL" style="text;html=1;align=center;verticalAlign=middle;resizable=0;points=[];autosize=1;strokeColor=none;fillColor=none;" parent="1" vertex="1">
          <mxGeometry x="651.5" y="880" width="120" height="20" as="geometry" />
        </mxCell>
        <mxCell id="yP4ieVi-nLM1ygez4TLR-50" value="1. Request GET upload URL" style="text;html=1;align=center;verticalAlign=middle;resizable=0;points=[];autosize=1;strokeColor=none;fillColor=none;" parent="1" vertex="1">
          <mxGeometry x="450" y="880" width="170" height="20" as="geometry" />
        </mxCell>
        <mxCell id="yP4ieVi-nLM1ygez4TLR-54" value="3. Request Post with presigned URL to upload recording" style="text;html=1;align=center;verticalAlign=middle;resizable=0;points=[];autosize=1;strokeColor=none;fillColor=none;" parent="1" vertex="1">
          <mxGeometry x="279.5" y="807" width="310" height="20" as="geometry" />
        </mxCell>
        <mxCell id="EooDAORPQ9iUzGNVsF7X-3" value="" style="edgeStyle=orthogonalEdgeStyle;rounded=0;orthogonalLoop=1;jettySize=auto;html=1;" edge="1" parent="1" source="EooDAORPQ9iUzGNVsF7X-2" target="yP4ieVi-nLM1ygez4TLR-1">
          <mxGeometry relative="1" as="geometry" />
        </mxCell>
        <mxCell id="EooDAORPQ9iUzGNVsF7X-2" value="Create-Derivative-Assets" style="rounded=1;whiteSpace=wrap;html=1;fillColor=#ffe6cc;strokeColor=#d79b00;" vertex="1" parent="1">
          <mxGeometry x="354" y="240" width="120" height="60" as="geometry" />
        </mxCell>
        <mxCell id="EooDAORPQ9iUzGNVsF7X-5" value="shared/s3presigned.js&lt;br&gt;&lt;br&gt;-w/o S3 secret info" style="rounded=1;whiteSpace=wrap;html=1;fillColor=#dae8fc;strokeColor=#6c8ebf;" vertex="1" parent="1">
          <mxGeometry x="590" y="800" width="119.5" height="60" as="geometry" />
        </mxCell>
      </root>
    </mxGraphModel>
  </diagram>
</mxfile>
